<mxfile host="app.diagrams.net" modified="2021-08-07T17:13:55.384Z" agent="5.0 (Windows NT 10.0; Win64; x64) AppleWebKit/537.36 (KHTML, like Gecko) Chrome/92.0.4515.107 Safari/537.36" etag="RU4lpeRW2XRc4VNTYw6N" version="14.9.5" type="github">
  <diagram id="10xR01P1XnOX9d7FJ3ty" name="Page-1">
    <mxGraphModel dx="1420" dy="1215" grid="1" gridSize="10" guides="1" tooltips="1" connect="1" arrows="1" fold="1" page="1" pageScale="1" pageWidth="850" pageHeight="1100" math="0" shadow="0">
      <root>
        <mxCell id="0" />
        <mxCell id="1" parent="0" />
        <mxCell id="_C5WhGoLgOnrEJhXYOFu-76" value="" style="whiteSpace=wrap;html=1;" parent="1" vertex="1">
          <mxGeometry x="520" y="130" width="330" height="530" as="geometry" />
        </mxCell>
        <mxCell id="_C5WhGoLgOnrEJhXYOFu-74" value="" style="whiteSpace=wrap;html=1;" parent="1" vertex="1">
          <mxGeometry x="10" y="130" width="100" height="310" as="geometry" />
        </mxCell>
        <mxCell id="_C5WhGoLgOnrEJhXYOFu-72" value="" style="whiteSpace=wrap;html=1;" parent="1" vertex="1">
          <mxGeometry x="140" y="130" width="370" height="310" as="geometry" />
        </mxCell>
        <mxCell id="_C5WhGoLgOnrEJhXYOFu-1" value="" style="html=1;outlineConnect=0;fillColor=#CCCCCC;strokeColor=#6881B3;gradientColor=none;gradientDirection=north;strokeWidth=2;shape=mxgraph.networks.cloud;fontColor=#ffffff;" parent="1" vertex="1">
          <mxGeometry x="10" y="170" width="90" height="50" as="geometry" />
        </mxCell>
        <mxCell id="_C5WhGoLgOnrEJhXYOFu-43" value="" style="edgeStyle=orthogonalEdgeStyle;rounded=0;orthogonalLoop=1;jettySize=auto;html=1;" parent="1" source="_C5WhGoLgOnrEJhXYOFu-2" target="_C5WhGoLgOnrEJhXYOFu-7" edge="1">
          <mxGeometry relative="1" as="geometry" />
        </mxCell>
        <mxCell id="_C5WhGoLgOnrEJhXYOFu-45" value="" style="edgeStyle=orthogonalEdgeStyle;rounded=0;orthogonalLoop=1;jettySize=auto;html=1;" parent="1" source="_C5WhGoLgOnrEJhXYOFu-2" target="_C5WhGoLgOnrEJhXYOFu-1" edge="1">
          <mxGeometry relative="1" as="geometry" />
        </mxCell>
        <mxCell id="_C5WhGoLgOnrEJhXYOFu-2" value="" style="fontColor=#0066CC;verticalAlign=top;verticalLabelPosition=bottom;labelPosition=center;align=center;html=1;outlineConnect=0;fillColor=#CCCCCC;strokeColor=#6881B3;gradientColor=none;gradientDirection=north;strokeWidth=2;shape=mxgraph.networks.firewall;" parent="1" vertex="1">
          <mxGeometry x="150" y="155" width="80" height="80" as="geometry" />
        </mxCell>
        <mxCell id="_C5WhGoLgOnrEJhXYOFu-51" value="" style="edgeStyle=orthogonalEdgeStyle;rounded=0;orthogonalLoop=1;jettySize=auto;html=1;entryX=0;entryY=0.5;entryDx=0;entryDy=0;entryPerimeter=0;endArrow=none;endFill=0;" parent="1" source="_C5WhGoLgOnrEJhXYOFu-3" target="_C5WhGoLgOnrEJhXYOFu-12" edge="1">
          <mxGeometry relative="1" as="geometry" />
        </mxCell>
        <mxCell id="_C5WhGoLgOnrEJhXYOFu-3" value="" style="fontColor=#0066CC;verticalAlign=top;verticalLabelPosition=bottom;labelPosition=center;align=center;html=1;outlineConnect=0;fillColor=#CCCCCC;strokeColor=#6881B3;gradientColor=none;gradientDirection=north;strokeWidth=2;shape=mxgraph.networks.firewall;" parent="1" vertex="1">
          <mxGeometry x="300" y="290" width="80" height="80" as="geometry" />
        </mxCell>
        <mxCell id="_C5WhGoLgOnrEJhXYOFu-40" value="" style="edgeStyle=orthogonalEdgeStyle;rounded=0;orthogonalLoop=1;jettySize=auto;html=1;" parent="1" source="_C5WhGoLgOnrEJhXYOFu-4" target="_C5WhGoLgOnrEJhXYOFu-7" edge="1">
          <mxGeometry relative="1" as="geometry" />
        </mxCell>
        <mxCell id="_C5WhGoLgOnrEJhXYOFu-4" value="" style="fontColor=#0066CC;verticalAlign=top;verticalLabelPosition=bottom;labelPosition=center;align=center;html=1;outlineConnect=0;fillColor=#CCCCCC;strokeColor=#6881B3;gradientColor=none;gradientDirection=north;strokeWidth=2;shape=mxgraph.networks.firewall;" parent="1" vertex="1">
          <mxGeometry x="425" y="160" width="80" height="80" as="geometry" />
        </mxCell>
        <mxCell id="_C5WhGoLgOnrEJhXYOFu-41" value="" style="edgeStyle=orthogonalEdgeStyle;rounded=0;orthogonalLoop=1;jettySize=auto;html=1;" parent="1" source="_C5WhGoLgOnrEJhXYOFu-5" target="_C5WhGoLgOnrEJhXYOFu-4" edge="1">
          <mxGeometry relative="1" as="geometry" />
        </mxCell>
        <mxCell id="_C5WhGoLgOnrEJhXYOFu-44" value="" style="edgeStyle=orthogonalEdgeStyle;rounded=0;orthogonalLoop=1;jettySize=auto;html=1;" parent="1" source="_C5WhGoLgOnrEJhXYOFu-5" target="_C5WhGoLgOnrEJhXYOFu-2" edge="1">
          <mxGeometry relative="1" as="geometry" />
        </mxCell>
        <mxCell id="_C5WhGoLgOnrEJhXYOFu-5" value="" style="fontColor=#0066CC;verticalAlign=top;verticalLabelPosition=bottom;labelPosition=center;align=center;html=1;outlineConnect=0;fillColor=#CCCCCC;strokeColor=#6881B3;gradientColor=none;gradientDirection=north;strokeWidth=2;shape=mxgraph.networks.load_balancer;" parent="1" vertex="1">
          <mxGeometry x="290" y="160" width="80" height="20" as="geometry" />
        </mxCell>
        <mxCell id="_C5WhGoLgOnrEJhXYOFu-42" value="" style="edgeStyle=orthogonalEdgeStyle;rounded=0;orthogonalLoop=1;jettySize=auto;html=1;" parent="1" source="_C5WhGoLgOnrEJhXYOFu-7" target="_C5WhGoLgOnrEJhXYOFu-2" edge="1">
          <mxGeometry relative="1" as="geometry" />
        </mxCell>
        <mxCell id="_C5WhGoLgOnrEJhXYOFu-7" value="" style="fontColor=#0066CC;verticalAlign=top;verticalLabelPosition=bottom;labelPosition=center;align=center;html=1;outlineConnect=0;fillColor=#CCCCCC;strokeColor=#6881B3;gradientColor=none;gradientDirection=north;strokeWidth=2;shape=mxgraph.networks.load_balancer;" parent="1" vertex="1">
          <mxGeometry x="290" y="210" width="80" height="20" as="geometry" />
        </mxCell>
        <mxCell id="_C5WhGoLgOnrEJhXYOFu-39" value="" style="edgeStyle=orthogonalEdgeStyle;rounded=0;orthogonalLoop=1;jettySize=auto;html=1;" parent="1" source="_C5WhGoLgOnrEJhXYOFu-8" target="_C5WhGoLgOnrEJhXYOFu-4" edge="1">
          <mxGeometry relative="1" as="geometry" />
        </mxCell>
        <mxCell id="_C5WhGoLgOnrEJhXYOFu-8" value="" style="fontColor=#0066CC;verticalAlign=top;verticalLabelPosition=bottom;labelPosition=center;align=center;html=1;outlineConnect=0;fillColor=#CCCCCC;strokeColor=#6881B3;gradientColor=none;gradientDirection=north;strokeWidth=2;shape=mxgraph.networks.server;" parent="1" vertex="1">
          <mxGeometry x="605" y="165" width="70" height="70" as="geometry" />
        </mxCell>
        <mxCell id="_C5WhGoLgOnrEJhXYOFu-38" value="" style="edgeStyle=orthogonalEdgeStyle;rounded=0;orthogonalLoop=1;jettySize=auto;html=1;" parent="1" source="_C5WhGoLgOnrEJhXYOFu-11" target="_C5WhGoLgOnrEJhXYOFu-8" edge="1">
          <mxGeometry relative="1" as="geometry" />
        </mxCell>
        <mxCell id="_C5WhGoLgOnrEJhXYOFu-71" value="" style="edgeStyle=orthogonalEdgeStyle;rounded=0;orthogonalLoop=1;jettySize=auto;html=1;endArrow=none;endFill=0;" parent="1" source="_C5WhGoLgOnrEJhXYOFu-11" target="_C5WhGoLgOnrEJhXYOFu-62" edge="1">
          <mxGeometry relative="1" as="geometry" />
        </mxCell>
        <mxCell id="_C5WhGoLgOnrEJhXYOFu-11" value="" style="fontColor=#0066CC;verticalAlign=top;verticalLabelPosition=bottom;labelPosition=center;align=center;html=1;outlineConnect=0;fillColor=#CCCCCC;strokeColor=#6881B3;gradientColor=none;gradientDirection=north;strokeWidth=2;shape=mxgraph.networks.router;" parent="1" vertex="1">
          <mxGeometry x="750" y="195" width="90" height="20" as="geometry" />
        </mxCell>
        <mxCell id="_C5WhGoLgOnrEJhXYOFu-26" value="" style="edgeStyle=orthogonalEdgeStyle;rounded=0;orthogonalLoop=1;jettySize=auto;html=1;endArrow=none;endFill=0;" parent="1" source="_C5WhGoLgOnrEJhXYOFu-12" target="_C5WhGoLgOnrEJhXYOFu-17" edge="1">
          <mxGeometry relative="1" as="geometry">
            <Array as="points">
              <mxPoint x="650" y="385" />
            </Array>
          </mxGeometry>
        </mxCell>
        <mxCell id="_C5WhGoLgOnrEJhXYOFu-12" value="" style="fontColor=#0066CC;verticalAlign=top;verticalLabelPosition=bottom;labelPosition=center;align=center;html=1;outlineConnect=0;fillColor=#CCCCCC;strokeColor=#6881B3;gradientColor=none;gradientDirection=north;strokeWidth=2;shape=mxgraph.networks.switch;" parent="1" vertex="1">
          <mxGeometry x="610" y="290" width="80" height="20" as="geometry" />
        </mxCell>
        <mxCell id="_C5WhGoLgOnrEJhXYOFu-34" value="" style="edgeStyle=orthogonalEdgeStyle;rounded=0;orthogonalLoop=1;jettySize=auto;html=1;endArrow=none;endFill=0;" parent="1" source="_C5WhGoLgOnrEJhXYOFu-13" edge="1">
          <mxGeometry relative="1" as="geometry">
            <mxPoint x="800" y="400" as="targetPoint" />
          </mxGeometry>
        </mxCell>
        <mxCell id="_C5WhGoLgOnrEJhXYOFu-13" value="" style="fontColor=#0066CC;verticalAlign=top;verticalLabelPosition=bottom;labelPosition=center;align=center;html=1;outlineConnect=0;fillColor=#CCCCCC;strokeColor=#6881B3;gradientColor=none;gradientDirection=north;strokeWidth=2;shape=mxgraph.networks.switch;" parent="1" vertex="1">
          <mxGeometry x="760" y="290" width="80" height="20" as="geometry" />
        </mxCell>
        <mxCell id="_C5WhGoLgOnrEJhXYOFu-47" value="" style="edgeStyle=orthogonalEdgeStyle;rounded=0;orthogonalLoop=1;jettySize=auto;html=1;endArrow=none;endFill=0;" parent="1" source="_C5WhGoLgOnrEJhXYOFu-14" target="_C5WhGoLgOnrEJhXYOFu-46" edge="1">
          <mxGeometry relative="1" as="geometry" />
        </mxCell>
        <mxCell id="_C5WhGoLgOnrEJhXYOFu-14" value="" style="fontColor=#0066CC;verticalAlign=top;verticalLabelPosition=bottom;labelPosition=center;align=center;html=1;outlineConnect=0;fillColor=#CCCCCC;strokeColor=#6881B3;gradientColor=none;gradientDirection=north;strokeWidth=2;shape=mxgraph.networks.wireless_modem;" parent="1" vertex="1">
          <mxGeometry x="20" y="350" width="80" height="70" as="geometry" />
        </mxCell>
        <mxCell id="_C5WhGoLgOnrEJhXYOFu-15" value="" style="fontColor=#0066CC;verticalAlign=top;verticalLabelPosition=bottom;labelPosition=center;align=center;html=1;outlineConnect=0;fillColor=#CCCCCC;strokeColor=#6881B3;gradientColor=none;gradientDirection=north;strokeWidth=2;shape=mxgraph.networks.pc;" parent="1" vertex="1">
          <mxGeometry x="535" y="580" width="85" height="60" as="geometry" />
        </mxCell>
        <mxCell id="_C5WhGoLgOnrEJhXYOFu-32" value="" style="edgeStyle=orthogonalEdgeStyle;rounded=0;orthogonalLoop=1;jettySize=auto;html=1;endArrow=none;endFill=0;" parent="1" source="_C5WhGoLgOnrEJhXYOFu-16" target="_C5WhGoLgOnrEJhXYOFu-15" edge="1">
          <mxGeometry relative="1" as="geometry">
            <Array as="points">
              <mxPoint x="650" y="490" />
              <mxPoint x="650" y="610" />
            </Array>
          </mxGeometry>
        </mxCell>
        <mxCell id="_C5WhGoLgOnrEJhXYOFu-16" value="" style="fontColor=#0066CC;verticalAlign=top;verticalLabelPosition=bottom;labelPosition=center;align=center;html=1;outlineConnect=0;fillColor=#CCCCCC;strokeColor=#6881B3;gradientColor=none;gradientDirection=north;strokeWidth=2;shape=mxgraph.networks.pc;" parent="1" vertex="1">
          <mxGeometry x="535" y="460" width="85" height="60" as="geometry" />
        </mxCell>
        <mxCell id="_C5WhGoLgOnrEJhXYOFu-31" value="" style="edgeStyle=orthogonalEdgeStyle;rounded=0;orthogonalLoop=1;jettySize=auto;html=1;endArrow=none;endFill=0;" parent="1" source="_C5WhGoLgOnrEJhXYOFu-17" target="_C5WhGoLgOnrEJhXYOFu-16" edge="1">
          <mxGeometry relative="1" as="geometry">
            <Array as="points">
              <mxPoint x="650" y="380" />
              <mxPoint x="650" y="490" />
            </Array>
          </mxGeometry>
        </mxCell>
        <mxCell id="_C5WhGoLgOnrEJhXYOFu-17" value="" style="fontColor=#0066CC;verticalAlign=top;verticalLabelPosition=bottom;labelPosition=center;align=center;html=1;outlineConnect=0;fillColor=#CCCCCC;strokeColor=#6881B3;gradientColor=none;gradientDirection=north;strokeWidth=2;shape=mxgraph.networks.pc;" parent="1" vertex="1">
          <mxGeometry x="535" y="350" width="85" height="60" as="geometry" />
        </mxCell>
        <mxCell id="_C5WhGoLgOnrEJhXYOFu-37" value="" style="edgeStyle=orthogonalEdgeStyle;rounded=0;orthogonalLoop=1;jettySize=auto;html=1;endArrow=none;endFill=0;" parent="1" source="_C5WhGoLgOnrEJhXYOFu-21" target="_C5WhGoLgOnrEJhXYOFu-23" edge="1">
          <mxGeometry relative="1" as="geometry">
            <Array as="points">
              <mxPoint x="800" y="610" />
              <mxPoint x="800" y="490" />
            </Array>
          </mxGeometry>
        </mxCell>
        <mxCell id="_C5WhGoLgOnrEJhXYOFu-21" value="" style="fontColor=#0066CC;verticalAlign=top;verticalLabelPosition=bottom;labelPosition=center;align=center;html=1;outlineConnect=0;fillColor=#CCCCCC;strokeColor=#6881B3;gradientColor=none;gradientDirection=north;strokeWidth=2;shape=mxgraph.networks.pc;" parent="1" vertex="1">
          <mxGeometry x="690" y="580" width="85" height="60" as="geometry" />
        </mxCell>
        <mxCell id="_C5WhGoLgOnrEJhXYOFu-22" value="" style="fontColor=#0066CC;verticalAlign=top;verticalLabelPosition=bottom;labelPosition=center;align=center;html=1;outlineConnect=0;fillColor=#CCCCCC;strokeColor=#6881B3;gradientColor=none;gradientDirection=north;strokeWidth=2;shape=mxgraph.networks.pc;" parent="1" vertex="1">
          <mxGeometry x="690" y="355" width="85" height="60" as="geometry" />
        </mxCell>
        <mxCell id="_C5WhGoLgOnrEJhXYOFu-36" value="" style="edgeStyle=orthogonalEdgeStyle;rounded=0;orthogonalLoop=1;jettySize=auto;html=1;endArrow=none;endFill=0;" parent="1" source="_C5WhGoLgOnrEJhXYOFu-23" target="_C5WhGoLgOnrEJhXYOFu-22" edge="1">
          <mxGeometry relative="1" as="geometry">
            <Array as="points">
              <mxPoint x="800" y="490" />
              <mxPoint x="800" y="385" />
            </Array>
          </mxGeometry>
        </mxCell>
        <mxCell id="_C5WhGoLgOnrEJhXYOFu-23" value="" style="fontColor=#0066CC;verticalAlign=top;verticalLabelPosition=bottom;labelPosition=center;align=center;html=1;outlineConnect=0;fillColor=#CCCCCC;strokeColor=#6881B3;gradientColor=none;gradientDirection=north;strokeWidth=2;shape=mxgraph.networks.pc;" parent="1" vertex="1">
          <mxGeometry x="690" y="460" width="85" height="60" as="geometry" />
        </mxCell>
        <mxCell id="_C5WhGoLgOnrEJhXYOFu-49" value="" style="edgeStyle=orthogonalEdgeStyle;rounded=0;orthogonalLoop=1;jettySize=auto;html=1;endArrow=none;endFill=0;" parent="1" source="_C5WhGoLgOnrEJhXYOFu-46" target="_C5WhGoLgOnrEJhXYOFu-48" edge="1">
          <mxGeometry relative="1" as="geometry">
            <Array as="points">
              <mxPoint x="120" y="330" />
            </Array>
          </mxGeometry>
        </mxCell>
        <mxCell id="_C5WhGoLgOnrEJhXYOFu-46" value="" style="shape=waypoint;size=6;pointerEvents=1;points=[];fillColor=#CCCCCC;resizable=0;rotatable=0;perimeter=centerPerimeter;snapToPoint=1;fontColor=#0066CC;verticalAlign=top;strokeColor=#6881B3;strokeWidth=2;gradientDirection=north;" parent="1" vertex="1">
          <mxGeometry x="100" y="310" width="40" height="40" as="geometry" />
        </mxCell>
        <mxCell id="_C5WhGoLgOnrEJhXYOFu-50" value="" style="edgeStyle=orthogonalEdgeStyle;rounded=0;orthogonalLoop=1;jettySize=auto;html=1;endArrow=none;endFill=0;" parent="1" source="_C5WhGoLgOnrEJhXYOFu-48" target="_C5WhGoLgOnrEJhXYOFu-3" edge="1">
          <mxGeometry relative="1" as="geometry" />
        </mxCell>
        <mxCell id="_C5WhGoLgOnrEJhXYOFu-48" value="" style="shape=waypoint;size=6;pointerEvents=1;points=[];fillColor=#CCCCCC;resizable=0;rotatable=0;perimeter=centerPerimeter;snapToPoint=1;fontColor=#0066CC;verticalAlign=top;strokeColor=#6881B3;strokeWidth=2;gradientDirection=north;" parent="1" vertex="1">
          <mxGeometry x="220" y="310" width="40" height="40" as="geometry" />
        </mxCell>
        <mxCell id="_C5WhGoLgOnrEJhXYOFu-53" value="Internet" style="text;html=1;resizable=0;autosize=1;align=center;verticalAlign=middle;points=[];fillColor=none;strokeColor=none;rounded=0;" parent="1" vertex="1">
          <mxGeometry x="25" y="220" width="60" height="20" as="geometry" />
        </mxCell>
        <mxCell id="_C5WhGoLgOnrEJhXYOFu-54" value="Firewall" style="text;html=1;resizable=0;autosize=1;align=center;verticalAlign=middle;points=[];fillColor=none;strokeColor=none;rounded=0;" parent="1" vertex="1">
          <mxGeometry x="150" y="235" width="60" height="20" as="geometry" />
        </mxCell>
        <mxCell id="_C5WhGoLgOnrEJhXYOFu-55" value="Load Balancer 01" style="text;html=1;resizable=0;autosize=1;align=center;verticalAlign=middle;points=[];fillColor=none;strokeColor=none;rounded=0;" parent="1" vertex="1">
          <mxGeometry x="275" y="135" width="110" height="20" as="geometry" />
        </mxCell>
        <mxCell id="_C5WhGoLgOnrEJhXYOFu-56" value="Load Balancer 02" style="text;html=1;resizable=0;autosize=1;align=center;verticalAlign=middle;points=[];fillColor=none;strokeColor=none;rounded=0;" parent="1" vertex="1">
          <mxGeometry x="275" y="230" width="110" height="20" as="geometry" />
        </mxCell>
        <mxCell id="_C5WhGoLgOnrEJhXYOFu-57" value="Firewall" style="text;html=1;resizable=0;autosize=1;align=center;verticalAlign=middle;points=[];fillColor=none;strokeColor=none;rounded=0;" parent="1" vertex="1">
          <mxGeometry x="435" y="240" width="60" height="20" as="geometry" />
        </mxCell>
        <mxCell id="_C5WhGoLgOnrEJhXYOFu-58" value="Firewall" style="text;html=1;resizable=0;autosize=1;align=center;verticalAlign=middle;points=[];fillColor=none;strokeColor=none;rounded=0;" parent="1" vertex="1">
          <mxGeometry x="310" y="370" width="60" height="20" as="geometry" />
        </mxCell>
        <mxCell id="_C5WhGoLgOnrEJhXYOFu-59" value="Server" style="text;html=1;resizable=0;autosize=1;align=center;verticalAlign=middle;points=[];fillColor=none;strokeColor=none;rounded=0;" parent="1" vertex="1">
          <mxGeometry x="655" y="140" width="50" height="20" as="geometry" />
        </mxCell>
        <mxCell id="_C5WhGoLgOnrEJhXYOFu-60" value="Router" style="text;html=1;resizable=0;autosize=1;align=center;verticalAlign=middle;points=[];fillColor=none;strokeColor=none;rounded=0;" parent="1" vertex="1">
          <mxGeometry x="770" y="170" width="50" height="20" as="geometry" />
        </mxCell>
        <mxCell id="_C5WhGoLgOnrEJhXYOFu-61" value="Wireless Access" style="text;html=1;resizable=0;autosize=1;align=center;verticalAlign=middle;points=[];fillColor=none;strokeColor=none;rounded=0;" parent="1" vertex="1">
          <mxGeometry x="10" y="420" width="100" height="20" as="geometry" />
        </mxCell>
        <mxCell id="_C5WhGoLgOnrEJhXYOFu-62" value="Switch 02" style="text;html=1;resizable=0;autosize=1;align=center;verticalAlign=middle;points=[];fillColor=none;strokeColor=none;rounded=0;" parent="1" vertex="1">
          <mxGeometry x="765" y="270" width="70" height="20" as="geometry" />
        </mxCell>
        <mxCell id="_C5WhGoLgOnrEJhXYOFu-70" value="" style="edgeStyle=orthogonalEdgeStyle;rounded=0;orthogonalLoop=1;jettySize=auto;html=1;endArrow=none;endFill=0;" parent="1" source="_C5WhGoLgOnrEJhXYOFu-63" target="_C5WhGoLgOnrEJhXYOFu-62" edge="1">
          <mxGeometry relative="1" as="geometry">
            <Array as="points">
              <mxPoint x="650" y="260" />
              <mxPoint x="800" y="260" />
            </Array>
          </mxGeometry>
        </mxCell>
        <mxCell id="_C5WhGoLgOnrEJhXYOFu-63" value="Switch 01" style="text;html=1;resizable=0;autosize=1;align=center;verticalAlign=middle;points=[];fillColor=none;strokeColor=none;rounded=0;" parent="1" vertex="1">
          <mxGeometry x="615" y="270" width="70" height="20" as="geometry" />
        </mxCell>
        <mxCell id="_C5WhGoLgOnrEJhXYOFu-64" value="PC01" style="text;html=1;resizable=0;autosize=1;align=center;verticalAlign=middle;points=[];fillColor=none;strokeColor=none;rounded=0;" parent="1" vertex="1">
          <mxGeometry x="555" y="410" width="50" height="20" as="geometry" />
        </mxCell>
        <mxCell id="_C5WhGoLgOnrEJhXYOFu-65" value="PC02" style="text;html=1;resizable=0;autosize=1;align=center;verticalAlign=middle;points=[];fillColor=none;strokeColor=none;rounded=0;" parent="1" vertex="1">
          <mxGeometry x="555" y="520" width="50" height="20" as="geometry" />
        </mxCell>
        <mxCell id="_C5WhGoLgOnrEJhXYOFu-66" value="PC03" style="text;html=1;resizable=0;autosize=1;align=center;verticalAlign=middle;points=[];fillColor=none;strokeColor=none;rounded=0;" parent="1" vertex="1">
          <mxGeometry x="555" y="640" width="50" height="20" as="geometry" />
        </mxCell>
        <mxCell id="_C5WhGoLgOnrEJhXYOFu-67" value="PC04" style="text;html=1;resizable=0;autosize=1;align=center;verticalAlign=middle;points=[];fillColor=none;strokeColor=none;rounded=0;" parent="1" vertex="1">
          <mxGeometry x="715" y="415" width="50" height="20" as="geometry" />
        </mxCell>
        <mxCell id="_C5WhGoLgOnrEJhXYOFu-68" value="PC05" style="text;html=1;resizable=0;autosize=1;align=center;verticalAlign=middle;points=[];fillColor=none;strokeColor=none;rounded=0;" parent="1" vertex="1">
          <mxGeometry x="720" y="520" width="50" height="20" as="geometry" />
        </mxCell>
        <mxCell id="_C5WhGoLgOnrEJhXYOFu-69" value="PC06" style="text;html=1;resizable=0;autosize=1;align=center;verticalAlign=middle;points=[];fillColor=none;strokeColor=none;rounded=0;" parent="1" vertex="1">
          <mxGeometry x="715" y="640" width="50" height="20" as="geometry" />
        </mxCell>
        <mxCell id="_C5WhGoLgOnrEJhXYOFu-73" value="&lt;b&gt;DMZ&lt;/b&gt;" style="text;html=1;resizable=0;autosize=1;align=center;verticalAlign=middle;points=[];fillColor=none;strokeColor=none;rounded=0;" parent="1" vertex="1">
          <mxGeometry x="320" y="440" width="40" height="20" as="geometry" />
        </mxCell>
        <mxCell id="_C5WhGoLgOnrEJhXYOFu-75" value="&lt;b&gt;WAN&lt;/b&gt;" style="text;html=1;resizable=0;autosize=1;align=center;verticalAlign=middle;points=[];fillColor=none;strokeColor=none;rounded=0;" parent="1" vertex="1">
          <mxGeometry x="35" y="440" width="40" height="20" as="geometry" />
        </mxCell>
        <mxCell id="_C5WhGoLgOnrEJhXYOFu-77" value="&lt;b&gt;LAN&lt;/b&gt;" style="text;html=1;resizable=0;autosize=1;align=center;verticalAlign=middle;points=[];fillColor=none;strokeColor=none;rounded=0;" parent="1" vertex="1">
          <mxGeometry x="660" y="660" width="40" height="20" as="geometry" />
        </mxCell>
      </root>
    </mxGraphModel>
  </diagram>
</mxfile>
